<mxfile host="Electron" modified="2023-10-22T09:42:22.893Z" agent="Mozilla/5.0 (Windows NT 10.0; Win64; x64) AppleWebKit/537.36 (KHTML, like Gecko) draw.io/22.0.3 Chrome/114.0.5735.289 Electron/25.8.4 Safari/537.36" etag="s-wP_A9tYH1R50FRFLxZ" version="22.0.3" type="device">
  <diagram name="Page-1" id="8oHuEHGMIaxplprh4v7S">
    <mxGraphModel dx="1863" dy="614" grid="1" gridSize="10" guides="1" tooltips="1" connect="1" arrows="1" fold="1" page="1" pageScale="1" pageWidth="827" pageHeight="1169" math="0" shadow="0">
      <root>
        <mxCell id="0" />
        <mxCell id="1" parent="0" />
        <mxCell id="0IGeUQQTDL9sOw2CpGD7-5" style="edgeStyle=orthogonalEdgeStyle;shape=connector;rounded=0;orthogonalLoop=1;jettySize=auto;html=1;entryX=0.5;entryY=0;entryDx=0;entryDy=0;labelBackgroundColor=default;strokeColor=#ff0000;align=left;verticalAlign=bottom;fontFamily=Helvetica;fontSize=11;fontColor=default;endArrow=open;endSize=8;" edge="1" parent="1" source="0IGeUQQTDL9sOw2CpGD7-4" target="RPlFq5SLpneZM6wzFSzE-1">
          <mxGeometry relative="1" as="geometry" />
        </mxCell>
        <mxCell id="0IGeUQQTDL9sOw2CpGD7-4" value="" style="ellipse;whiteSpace=wrap;html=1;fontFamily=Helvetica;fontSize=11;fontColor=default;" vertex="1" parent="1">
          <mxGeometry x="-85" width="170" height="240" as="geometry" />
        </mxCell>
        <mxCell id="TgZJ000puznnN7lQ2_1G-1" value="&lt;font style=&quot;font-size: 22px;&quot;&gt;Data&lt;br&gt;server&lt;/font&gt;" style="shape=cylinder3;whiteSpace=wrap;html=1;boundedLbl=1;backgroundOutline=1;size=15;verticalAlign=middle;align=center;" parent="1" vertex="1">
          <mxGeometry x="530" y="230" width="180" height="200" as="geometry" />
        </mxCell>
        <mxCell id="TgZJ000puznnN7lQ2_1G-9" style="edgeStyle=orthogonalEdgeStyle;shape=connector;rounded=0;orthogonalLoop=1;jettySize=auto;html=1;labelBackgroundColor=default;strokeColor=#ff0000;align=left;verticalAlign=bottom;fontFamily=Helvetica;fontSize=11;fontColor=default;endArrow=open;endSize=8;" parent="1" source="TgZJ000puznnN7lQ2_1G-4" edge="1">
          <mxGeometry relative="1" as="geometry">
            <mxPoint x="520" y="265" as="targetPoint" />
          </mxGeometry>
        </mxCell>
        <mxCell id="TgZJ000puznnN7lQ2_1G-4" value="Mutable&lt;br&gt;Image Recognizer" style="html=1;whiteSpace=wrap;" parent="1" vertex="1">
          <mxGeometry x="180" y="240" width="110" height="50" as="geometry" />
        </mxCell>
        <mxCell id="TgZJ000puznnN7lQ2_1G-10" style="edgeStyle=orthogonalEdgeStyle;shape=connector;rounded=0;orthogonalLoop=1;jettySize=auto;html=1;labelBackgroundColor=default;strokeColor=#ff0000;align=left;verticalAlign=bottom;fontFamily=Helvetica;fontSize=11;fontColor=default;endArrow=open;endSize=8;" parent="1" edge="1">
          <mxGeometry relative="1" as="geometry">
            <mxPoint x="520" y="380" as="targetPoint" />
            <mxPoint x="290" y="380" as="sourcePoint" />
          </mxGeometry>
        </mxCell>
        <mxCell id="TgZJ000puznnN7lQ2_1G-5" value="Anchor Manager" style="html=1;whiteSpace=wrap;" parent="1" vertex="1">
          <mxGeometry x="180" y="370" width="110" height="50" as="geometry" />
        </mxCell>
        <mxCell id="TgZJ000puznnN7lQ2_1G-11" style="edgeStyle=orthogonalEdgeStyle;shape=connector;rounded=0;orthogonalLoop=1;jettySize=auto;html=1;labelBackgroundColor=default;strokeColor=#2D7600;align=left;verticalAlign=bottom;fontFamily=Helvetica;fontSize=11;fontColor=default;endArrow=open;endSize=8;fillColor=#60a917;" parent="1" edge="1">
          <mxGeometry relative="1" as="geometry">
            <mxPoint x="300" y="280" as="targetPoint" />
            <mxPoint x="530" y="280" as="sourcePoint" />
          </mxGeometry>
        </mxCell>
        <mxCell id="TgZJ000puznnN7lQ2_1G-12" style="edgeStyle=orthogonalEdgeStyle;shape=connector;rounded=0;orthogonalLoop=1;jettySize=auto;html=1;labelBackgroundColor=default;strokeColor=#2D7600;align=left;verticalAlign=bottom;fontFamily=Helvetica;fontSize=11;fontColor=default;endArrow=open;endSize=8;fillColor=#60a917;" parent="1" edge="1">
          <mxGeometry relative="1" as="geometry">
            <mxPoint x="299" y="400" as="targetPoint" />
            <mxPoint x="529" y="400" as="sourcePoint" />
          </mxGeometry>
        </mxCell>
        <mxCell id="TgZJ000puznnN7lQ2_1G-13" value="GET available images" style="text;html=1;align=center;verticalAlign=middle;resizable=0;points=[];autosize=1;strokeColor=none;fillColor=none;fontSize=11;fontFamily=Helvetica;fontColor=default;" parent="1" vertex="1">
          <mxGeometry x="349" y="240" width="130" height="30" as="geometry" />
        </mxCell>
        <mxCell id="TgZJ000puznnN7lQ2_1G-14" value="base64 coded" style="text;html=1;align=center;verticalAlign=middle;resizable=0;points=[];autosize=1;strokeColor=none;fillColor=none;fontSize=11;fontFamily=Helvetica;fontColor=default;" parent="1" vertex="1">
          <mxGeometry x="368" y="290" width="90" height="30" as="geometry" />
        </mxCell>
        <mxCell id="TgZJ000puznnN7lQ2_1G-15" value="JSON with a list of configs" style="text;html=1;align=center;verticalAlign=middle;resizable=0;points=[];autosize=1;strokeColor=none;fillColor=none;fontSize=11;fontFamily=Helvetica;fontColor=default;" parent="1" vertex="1">
          <mxGeometry x="349" y="410" width="150" height="30" as="geometry" />
        </mxCell>
        <mxCell id="TgZJ000puznnN7lQ2_1G-16" value="GET available anchor configs" style="text;html=1;align=center;verticalAlign=middle;resizable=0;points=[];autosize=1;strokeColor=none;fillColor=none;fontSize=11;fontFamily=Helvetica;fontColor=default;" parent="1" vertex="1">
          <mxGeometry x="320" y="350" width="170" height="30" as="geometry" />
        </mxCell>
        <mxCell id="TgZJ000puznnN7lQ2_1G-18" value="" style="shape=image;html=1;verticalLabelPosition=bottom;verticalAlign=top;imageAspect=0;image=img/clipart/Gear_128x128.png;fontFamily=Helvetica;fontSize=11;fontColor=default;" parent="1" vertex="1">
          <mxGeometry x="340" y="415" width="19" height="20" as="geometry" />
        </mxCell>
        <mxCell id="TgZJ000puznnN7lQ2_1G-19" value="" style="sketch=0;outlineConnect=0;fontColor=#232F3E;gradientColor=none;fillColor=#ED7100;strokeColor=none;dashed=0;verticalLabelPosition=bottom;verticalAlign=top;align=center;html=1;fontSize=12;fontStyle=0;aspect=fixed;pointerEvents=1;shape=mxgraph.aws4.container_registry_image;fontFamily=Helvetica;" parent="1" vertex="1">
          <mxGeometry x="340" y="291" width="28" height="28" as="geometry" />
        </mxCell>
        <mxCell id="TgZJ000puznnN7lQ2_1G-22" style="edgeStyle=orthogonalEdgeStyle;shape=connector;rounded=0;orthogonalLoop=1;jettySize=auto;html=1;entryX=0;entryY=0.5;entryDx=0;entryDy=0;labelBackgroundColor=default;strokeColor=#ff0000;align=left;verticalAlign=bottom;fontFamily=Helvetica;fontSize=11;fontColor=default;endArrow=open;endSize=8;exitX=1;exitY=0.5;exitDx=0;exitDy=0;" parent="1" source="RPlFq5SLpneZM6wzFSzE-1" target="TgZJ000puznnN7lQ2_1G-4" edge="1">
          <mxGeometry relative="1" as="geometry">
            <mxPoint x="75" y="325" as="sourcePoint" />
          </mxGeometry>
        </mxCell>
        <mxCell id="TgZJ000puznnN7lQ2_1G-23" style="edgeStyle=orthogonalEdgeStyle;shape=connector;rounded=0;orthogonalLoop=1;jettySize=auto;html=1;entryX=0;entryY=0.5;entryDx=0;entryDy=0;labelBackgroundColor=default;strokeColor=#ff0000;align=left;verticalAlign=bottom;fontFamily=Helvetica;fontSize=11;fontColor=default;endArrow=open;endSize=8;exitX=1;exitY=0.5;exitDx=0;exitDy=0;" parent="1" source="RPlFq5SLpneZM6wzFSzE-1" target="TgZJ000puznnN7lQ2_1G-5" edge="1">
          <mxGeometry relative="1" as="geometry">
            <mxPoint x="75" y="325" as="sourcePoint" />
          </mxGeometry>
        </mxCell>
        <mxCell id="RPlFq5SLpneZM6wzFSzE-1" value="Connection enstablished" style="rounded=1;whiteSpace=wrap;html=1;arcSize=40;fontColor=#000000;fillColor=#ffffc0;strokeColor=#ff0000;fontFamily=Helvetica;fontSize=11;" parent="1" vertex="1">
          <mxGeometry x="-60" y="300" width="120" height="40" as="geometry" />
        </mxCell>
        <mxCell id="0IGeUQQTDL9sOw2CpGD7-3" value="" style="shape=image;verticalLabelPosition=bottom;labelBackgroundColor=default;verticalAlign=top;aspect=fixed;imageAspect=0;image=data:image/png,iVBORw0KGgoAAAANSUhEUgAAATAAAAJrCAYAAABnWs9aAAAAAXNSR0IArs4c6QAAAARnQU1BAACxjwv8YQUAAAAJcEhZcwAADsMAAA7DAcdvqGQAAGvlSURBVHhe7Z0HgCxFuba/CZvO7tmTAzlnDgKKKBkEroiAKCJcBCQIFxBBuCLmgPeK3B8viBIkSVAQEAREvGQlSBBBkuQcTo6bd2b2r7e6aqanp2d3QvdMz8z7nFPbVdVxerre+b7qCrF58+aNCSGENCBxsySEkIaDAkYIaVjq7kJOnTpVNtxwQ9l0003l5JNPls7OTp0/NjYmsVhMB0JIfUA5tGURDA0NyQUXXCAvvviivPrqq7J8+XKdXy9qKmC4CTNnzpSDDjpIDj74YJkxY4bOHxgYkL6+Prn++uv1DbI8/fTTOhBC6sPWW2+tgwUGxiGHHCI9PT0yadIknbdkyRK54YYb5KabbpLFixdrwasVoQtYPO54qWeeeaYccMAB0tXVJZlMRs455xy5/PLLZcWKFTpNS4uQxgEihbI9ZcoUOeaYY+SMM87Q6cHBQbn11lvl7LPP1tuhbIdJqAIG9/Duu++Wjo4O/cEuvPBCOffcc2V4eDgrbISQxgdChXJ++umny4knnqgNFZTzvfbaK1Q3MxQBmz17tlx99dWy+uqrywMPPCCnnnqqvPPOOxQtQloAiNlaa60l5513nuy2227y/vvvyxFHHCELFy40WwRH4AIG4dpqq63kvvvuk6OOOiqvTosQ0lqgzuzKK6+UPfbYQ5555hktZEESiICh/mq77baTyy67TFfIr7322qzTIoRkQZ3Z22+/rSv+jz32WHniiScCqeyv2qeDUKFuC+L14x//WJuOFC9CiBtoArQBGgGtgGYEoRNVWWDd3d3aVRwZGZFtttlGVq5cSfEihBQFVldvb6889dRT0t7erl3L/v5+s7Z8KrbA0A7kb3/7mzz55JO6IeqqVasoXoSQcYFGQCugGdAOaAi0pFIqErA999xTHnnkEbnjjjvkwAMPNLmEEFI60A5oCLQEmlIJZbmQUM8ddthBLrroIt2S/v777zdrCCGkMnbffXfdkv+EE07QYlZO5X5ZAobGaY899ph84Qtf0HVfhBASBKgL+93vfifbb7+9bvReKiW7kGhV/+ijj8qdd95J8SKEBAo0BdoCjYHWlEpJFhhcx4ceekhbX4ceeqjJrR3WpORLAkLCp57l7brrrtNW2E477VSSK1mSgP3sZz+Tj3/847LuuuuanNqAG4iQTCSko6Ndh/a2NhWSklB5BRS936V/EaF/ZUGcYOLvNUv+pq5UkWP4Z6tcz4qC7czDlpevdyvc0Z3n7OZNW/ISitoUKBQcd8jgovR/7/U0D+j+k05nJJVOyehoSlKptM4rRUSC5s0339RvJ0877TSTU5wJBWzHHXfUlfYbbbRR6GP/QJx6eibJ5O5uJVDxyn8BfHcr/VihFpNyDl7is1O4mckpsr9/tsr1WZGXZR5mv/0LHnSVHFeosn8AhMJEg6TYvVbnajWBqgZ7n4aGhmVoeEQJXdqsCQe4kK+88oqu1H/44YdNrj8TChjG47r00kvlO9/5jskJlt7JPTJtaq+2sgKnCiELVcQqJP+LcqV8vkH/L1XlTrQtCjMW+m8+eIgLUFl5Bd+T1rFsEgXBRBV6O1c6D9cXMPF3UbiFLXQIFKjggXXWPzCoRS0M0GL/y1/+ct5YZH6MK2Dnn3++dh3RBSBIMCrFGnNnS3t7m8kJkaJPfyXFInwKvwyT4/Mt+X9xKneibY2KFGymd/XkmqQ33zmEXx6AcJioJj/tRPE3/w6Xe79xTWMZHNs5PtKk9sDdXL5ipf4eggQj2MCVPOWUU0xOIUUFDM39UXG/5ZZbyoIFC0xudcAthHC1KVexZkxYKopvEKSA+X+1nlyfjYruN9G25mEq2Ezv6snVSU+uz3b5z6dZ681zpZ2o+pu3TXnkLCl9dJNLoghcSwhZRv2oBMGcOXPkueee0xX66KboR1EBu/fee+WFF17Qwz8HwbSpU7SrOB5BCkYeIYiY/1c0zhdXZFXxPdQan5X5Wc42BZvpPE+uT54jNn55Fkc48inMcw6Ty3Ri6q9nuyyem+pYUTpWdBfSOAwo1xLuZRBgmOrNN99cPvGJT5icfHwFbO7cuXLXXXfpMeuDGIRwnbVW939rWAVli11FIjZBcRpntf8qV27J+6qU8z8fnefJ9cmzwmDJFx+z9QR5TlT9LSlPYSP2lmKzvBNTqJod1JEtWVr9Sz99nCVLZO+995b58+eb3BwF6oQ3f9dee608+OCDgYjXeuusGbh4ARSAsgrBRDuggBUE5Duh+GrXP5VpQ26jXMhLZg+d2weVzQju48Acz8tDWn2pmTHnFXd2G1eek3bCmMrLT9s8J18fD/uMkzemg81TwWyTl6eCzbPX5aTVMXBdef9IswPtmDljmklVDo4DLYIm+bVKKLDAIDYY6mKTTTaRpUuXmtzKgHhV3BSiTEo5S2kFx7PVBDsVXa0KsJvxtvNdpzLz1njTitwpzJq81SrPlXai6m9JeQpXpDAvH+91EWLBD9niJctMqjKmT58uL730kh6yy9uEo8DEQtsL9EXC9EjVsNYac8sSr8HBIflg/iJ5/c13dHjz7fdk6TJnxqLioOA4wfcfxMEV1J+iIbedZ5X7n16fC9rqKBZwVWqZtU7cAZaLtnZgneTyHSvJ5nusKcTdaRW0JaWtJOeYentjNTnrzT44lsrLbeMEx0JyXac9jtnOCc56HYr8I6QY0IDp06aYVGVAi6BJ0CYviTlz5vzAxPXJMFriT3/6U3n88cdNbvn0Tu7WjVE1WsOKC9nCRUtkgQp9/QOSSqVMrlNohoaHZfmKVbJiZZ90dXbktRUrr9j4bF1alj9qw3ELLtbrAp/DKwQWJ98J6q9eU5in/ukMpE2OSuv1JrtwGxPVEazNRk1EBYOzlpBwgBuIH1U0t6gE6BL2/9rXviYXX3yxyXXIcyExXjU6U6LdVzWTcayvXMdi2JOh28I7733gFLoS6erslLmzZwRb3NTBSi7AZrPxtnc+Tm59fhIiY6JZzNE8+U5eLtOJqb+u7bJRtV0ubpYuSv58hITIosWVV0lhchC0C/vYxz6m592w5LmQ//Ef/yGjo6NVDfE6d/ZMXWAcC8EJ1mXRbosKsLTefvd9HS+HQSWq7ys3033sikOBq1QkqG2sy6bdM7hjnm2s+2XdNnde7hw5ty673uapYO+PdQGdym+Th/VI62Uu+H4Gn3+E1ItVfQPZgCGkKwWaBG2CRrnJE7B9991XD7ZfaUNTmHrocK0LmC187sKFoNa9817h69BSGR4Z0S5l3jEnCq7CnhUAlV+KIHmvP2+dCTkRcY7nzsueJy+N9fl1Us715YuUk+dskw2+/wgJH7cYlRrcVNOqAZoEbYJGuclzITFv25prrqln1K2Eqb2TpbfXNb61OnKucDmxxUuWa0uqWtZcfU7BS4K8gpyXcJO/Ipvy3d4lDkWOlycfBVH115tn/uTiOShFpBag3KxcVbmXVQ3wvtx13eWAmb/fffddPe+sJSuJeFUJKhUv0NPTnWdBaMsiG1QBVSEI8QLOG0rXuVTIWiwI2fMaqygbiuyDfPd2xhqy663llAvONtn9EVzr8/bDMrsNju9s6/1HSKVAlBAmdXXqJV54uYNdj1BPksmkiZWP1SarVSArYOuvv772MSsFN6ZQLFTQQuCEflflW7UMDg0XnstzPicoaXAFLSZGZLLBbOvezi1GCLl1pn5Kxd3r80RKr1PbYD+EvH+E5INCrYNHdMYLQTQyb0SgUdAqS/YuoOFqNdbXZGN9ZQuwDa5C3j8QjPUFIAx4k5k9j8/58oJZ7xYhR4gcofEL9rPooPNy22phcgfPP9K4WEulW1kz7jCRBeMnNKWELOMcu1Twwx51qhnMARoFrbJkBewb3/iGHnm1UuCf5oQkJxBZkVChUt+3GGiVa489YXBbaUpwigqRO3j+kebEClMyqSybEkTET4QQAqFEEfNuhee1UajGeoRGQass2SOhkFcHBKFQINwiQUjYOEOOt/laSlpolEiNx0RPaSIM1y1bNrAssZyMo3OhXGOAjGfFloJbqwL5pPF4ib8aVV64l6CPR+qLrQtCRbSNjwfEyGsF4Vm0z2PeOgiXyp7o1x+FH2FSZ4fJqRHuH/iSnuvGfvaDKrvZb7MaCymRKO3NQtAjsFLAmgtbxTAymtITtwC/tkUIxSwpPBMFz4Ur6edplPLsD9S0bkldzwTPdqM/+dWUXff3lRUwHPD55583qfJom8Ast+CXNSiibia3An4PoZ/YFAt+uEUMTDQIppc8AcPCp5wUdSMr/w0Phrzz1/tiwqXSejBolPu5yx4FB3z22WdNqjyS5tdyIoJ89Tt5sqvBLAkFP9FB6OmelH2IvOvKodj21bzsyRMwg8op+Nem3FN3gJtp9/XuX1PculXHywibSrUAGuXeNxBFSZboQoLp00qfdXc82koUzahhC1Cp/zo7OnTQBcv1r1y8QlNKKEaQ5arYeayI4VzTlRXmDdk74RIdhJGRUR20IJl/DY36TL4Uy28Q8F0FQbYrEboRYezpRYsW6RXlgJEXy7mglSv7dJ/GSin3fI0OXG+074HvP56w1IrV586Uvn5nzHN3lxQIS5jgQa3Vt27r4Cy2DqxmVRd5H1QlPPV0eP5HPZaqLRN+15j21P3VqyuRm0pGvJk1a5aeq8N2JwpIwKarm2cSJYLZSzADcLlgcLQwhqiuB6WKEYYQGhgcCvyhC1twgiS/+HrKdwjUXcCA+0N6bgAFLEABmzUz1zepHFAo+/snLsSwPOD3BjHGdliEaRmtNmeG7sVgH7pGEp6g8AqYJSwhi5yAeaywmG4uEpfh4ZwnU0zAsuJld1ebUcBcVCpgllXqZsKl9HudjS8JI7zWci7JoMWoFQUnSIqJl5cgxSwSAgbGEbFEMqG7udneJnbNhAKmWNnXHAJW42/Dn8lKoGBdIcyYPjUbIIxYViNeEKNyQ1BAuChetQPls1SxK4e6iRfI+0AqUW5dTZMTCQGzwASGxWWDFz+xmSiQxqYSQQpLyKJB836ySqibgPmJzUSBkHKwQtbwRd77AZQRpl9klfPBGv4m+BOIgPmJzUSBkFrS8ELmufh0pnCGHzQwBt43js1MpFxIQtyEITgNLWSuC0dDXWTkhnmK6akJWw0KGGlJGlrISBYKGIkktRKXhhMyKm8eFDBCFNSFxoQCFiJLl680MVIO9RQSK2S27VeUSKXT2TCkW+C7O6vn7lr3pK68bUsZ76xRoYARMg6VNGJ1i0eQoVQgaXgjCSHDQABdncGNwxc1KGCEFAHiZZsm+AlKsRA2Uyb3yBT3BNIeYHFpq8tleGHGfHQfsqFZoICRSBE1Zyespgl+bSNLCb1KvHCP0AcSQ7R3qNDpGb8fIooZu3JtxZy7OnN6MGPxBUFQA5JSwAgpAz9RqSSUy5qrzdbBqfEqlHm4io676Ax+mUpnzLyptlGrs8+MaVP0slmggJHIEDXry02lwlMtWrhWn63juD8QJC1MYxnHVdQrnKW7sj6ZiOs8CJme0FklnPVjZc8zEGUoYIREFIgXgO6ge1BqNCXDZshsHUZH9aCGjrVl3jZCowzOi4cx7UraFvuOho3J1HHq0BoJChghEQTiBUGC+IwqoRoZGZERJVba8lL/9KTRxhpzXh44caxz61g85hRxPV6YVi9nnV3f6FDAQoZtwUqjWQpUEKwxd5YWG1hXw8OwstJasLLKlBeQ5ySwDSwxvUJnazlTaVtzhjgizvpmgAJGSASBVQXh0qLjERxf7dGZVsRQcW+2wgL7e8Bxp0zuNqnGhQJG6o5vgWxRVlfWF+q7nAlv1J1x3RxEIU6wspymEmYoaStQ2QXcS/XX5OMv0l4KcxoPChghE1CrCTBWmzNTxlBZr1xHx/Jy8iFEVrh0vgKziyeSccfigojp3Bx2Ow2ELCtm3i0bGwoYqSvNVZyqZcypjIe1ZG4MFtqaUv8gWjZYbDqjxU2BP9l9nYgryxWpH7Z3QxBQwAiJCBAqpytSTmUyStCseI0HZijKNlq1/bs9OHVjzQUFjJCIkK2nMgv95rEMEol4dm7I3JtHDyq7vKOGQW4MjWqhgNUANqXwp/4FqTjZivEaMWfWdCVYrreHCvR3BF7rq7urS48w0V7SdIOez4FkjT9bmFDACIkCSlNKEc1JSrhgmcFdRPDaMnA38/J8Dtk88kUBI3Ui6oUo54rVBu0u4qZMcGPwxjGdSksKwdWcwk3BtXuPWe+bH+CtpYARMgG9NWjwCevLrStZa8xT2CFcuv+jCumUI1yo+3LjFTD3kbPHVYtaNQ8JEwoYIZEAwpITGqVCvpZKVrx02y+1vWsXgHqx8VzRcl8MRB0KGKk5zVWEgsGrK9AuPzc2Ho/l3T80ZnWDfdwCpmPuHTznaXQoYIREAP0GEuJiNcsYYHEfEbONV/3ahuVZX4gWsbjqOax04SeqHAoYqSmNZgDYVuNh14MtW76q4N7Amoopi6vUVlOdHe2mIWyOrMuoFlbc6ileXV3BTjBCAasRbAvWmNR2un6ojIkCbYU54jXRrEgYShoV/Gg75hzCHMh9PEU0JvQIzgajgBESEZav6PPqTTYN46ktmdSV9J0dziQedso0pPFGMtecQm2s/rubV+S/42weKGCkZjRnEQoYl8vn4EgP3D8EdDfCqBQd7e1aoPBGEkPv4O1kdmv1H28pvdRjTP+woYAREiEgUO56Kx0MEKxMxmm4qtuDKeHC0nbi1puqP7quC4JndobbGBXxKrU+r1QoYKQmuMphQxBsMSsdiA3qsZyhoS3GClMB3SMdS8wZyNDmO5YXYo715cSiUucVHhQwQkoAbyNXnzNTDzo4d/YMHcLCER3M7WhETCuUI1OOVFnhUn+RrwOsN2eCD0szuoxeKGCE+ACByMNYN24wgsScmdNNKlis2wdB0i4hwCIb1B+TrV1KtZ27lX1kxStg05YCRkInV6waF60ZOlL4aWbPnGZiwQMhgksIgXIHK1oIjj3mgO0jb3kFKGIUsBrCtmCNg7eMoU5KB7SzQjBCZsVj1oypMnP6VB0PGitKbmFyixZoCOEKAQoYCZVCe6Uxwds+WD2OiOXPBuQ2ymZMm2Ji4eAWM3doFIJ+OUIBI8QHb5cXWDzor4gAAXOaNFgRg0XmbAemT+01MVJIsBJGASOkCBj9FF100NIdLd61OamFCnJmG5VC1Bz1crt106ZONjESJhQwEhouo6QhcV9/atQZg0uDFSpYwUKdmG5M6srDYmovRSxsKGCE+GBdQ0ePHFnqaPdMoqFX5+wuvU9enl1DsrAZBWkEGr3o5lq653+SRCIhncqtzILV3u2yeSRsKGA1hk0pGgP9xtGKmFYiZwlZGhkZVZZETAtZNnR0mG1dwqXiUyb3mAQBfAtJSA2ADOUq6SFk2RUaFMShoWEZGs4FvLmEmMHVbMPY9HrLrJyREKCAkcBpiiKrP4RjTdlKel3Hlc11yKTH9ESzYHBoSAuZbS8Wj8ddW5IwoIAR4gfGos+KmBEu4yIiafOwWf/goI5b0hlniJsxvJlU1GJatsYhWCcyNm/ePP1NPPPMM7L55pvLokWL9Ipy6EQbGVIyzdzQ0SnW/iwLuf4PI0VAUGAVjYyOOteS9f1y1wZhcXQo/2r16PPxmO9EGih37rGsnLouCJqyAtQ+XjLKCnMfvRnmYAyCnu5uM86/yMJFi53MMpg1a5a88MILstVWW+k0BawOREXAmu2FAoa7QaNS3e1HWz9apTQQGwgb/rlxz+yD/QAm0/Adg96lU1oXIWLmcPFEoYjBlbRQwBx6erqzPxAUsAbFT8D4drJ6Vps9Q1JKNDBCQ7545ZpFWPymJHOD6fvRZCIPlLvsYY14mWPGPbNjAz1zttE1CphD0ALGOrA6ALHyBlIdEC+nj2K+eAFbbwWKzafoJaG2yba8t+AYWsTM8XKHLcAtXiQ8KGCkKYCQoNmDFhSXqminUeVXQkJZVW6rzY2jYc46/EWdF6k9FDDSRBSKDUTNUorl5aVAwFRST9/vOVc2pSLFRI8Eb5RSwEhTANFwdCMnHp5kAWi/hYCRJjBNGeZd9JKt2/KUPIhYUahfvgQ9KzeggJHmQIlGoeWj0kZnEsnCRx1b460lKvidgJxxhMm1yle/zOlpgdUOChhpCvJcOq+4+IhNV0eHS7icoBug+tRloUV9FnOs8eY3zF6JifANpJvi960SKGCkKdAupIlnIy5N84I3jBArZ6x7LJ3grdsCcBcdl7HEwjfOeUmwUMBIU+Ct/5oIiJWd3ceKWDG0dnmOr4WulNOVfklNz3hWa6VQwEhT4Gc5obwUq2x3xMuZliz7phILX8HxOUYRYXK/9SThQwEjzYGPbkC80E8RwSss0LXseF+uf36V/XkaaA7jV0/vvAnNX9HsU/vXGwoYaQogMlkXBYus6KBzdty3g7a3Vf7E7cRyx4DYecGLAHc+xctD4VdQNRQw0hQsXrqiqLsIdEV8kRLkFTI3aB/mZ21ldcq1dG9G8aoNFDDS5ORkxXEpS3/k0cDVNrGYCD+LjIQPBYw0DRCaYlaWtsAgYCokE4Ut7v1wxMup13LkqYhIebJpffkTggdJASPNw7IVq0wsH7e+QOAgYu1tninSDJO6upwJbTs69FvKnPWljmIOVDBKhYtGmua/VsydM1sHLWEBqxgFjDQVxdw9dBmCJaW7DplKLdRv6Vm3zczb1mV0huVxAnALoN7XnaGw9hnFK5+ccIUHBYw0FY5QqYhHZIBt5qADXEMVtJuo0lq4bNuwFNqHpZx97F/nvzMctckFcBchXBSvQuYvWJgXwoACRpoK9DuEGGmRyeqME9ECZMVKhVTG3RLfCJcKen/3viZeMM4967rKI4RKMAoYaTq0iGH8e6gQFEerjiM9VoCsFeZYXk7Q2xuc3dRfk6UbvdoEiQwUMNKUwDrCG8S8bkL6jyNDNrjJ5au/VvwUjltqEgZaX+XDt5CElAFEZsWqPu0eahx1ckUgVbl/Os8lXBAtWGaw0tywvis6UMBI07NSCY7ttJ3nVvoFBQRLd/b2cRspXtGCAkZaAghPZsxU3qPCHgJlREq7iOofrC0tdB53EfBNYxAE70RSwEjLYEXIBm10KbGyFfl+1pYNJJpQwEjL4hYot1C54yRA2IyCkHChcDUWFDBCSMNCASOE1IygvUgKGCEkdNBRng1ZCSGNSRjqpaCAEUIaFgoYIaRGsCErIaQhCceHpIARQkInpCowChghpPYU9jatDAoYIaRhoYARQsKHzSgIISQfChghpGGhgBFCQodvIQkhDQzbgRFCSB4UMEJIbQjBCKOAEULCh80oCCEkHwoYIaT2BNSXiAJGCAkdNqMghBAPFDBCSA1gOzBCCMmDAkYICR82oyCEkHwoYISQhoUCRghpWChghJBQwazcYUEBI4SES4wNWQkhpAAKGCGkJoRhhVHACCEhA+nKyVdQc0ICChghJFT8La9gZIwCRghpWChghJCGhQJGCAmXsNpQKChghJCGhQJGCGlYKGCEkFAJ0YOkgBFCwqZQwoJqC0YBI4TUnKCsMgoYIaRhoYARQsKFzSgIIaQQChghJHzcVliAvbkpYISQUGEzCkII8YECRggJmfBsMAoYIaQOBCNqFDBCSB3ggIaEkEbA19iiBUYIaXEoYISQ0AhzUltAASOEhEeYjcAUsXnz5unatGeeeUY233xzWbRokV5RDp0hq2ypTG6bIsdt9HX5+Kw9ZEr7tNzNwyfMu5FpFUqvRBxT2ydj5VU6xmIZE7PLiSjjmmLYVv32jKljx9U+5vPFSz6Xg//2OLYbdXD8zGFTLM258sE+2CBhlv7EYikTK48EzjemzlHWd4BtvZ9lHPQ9VSfKfm85cHqEjOuzJbM3pNRz4D6qbe1HKLiHbnBsbFj6503o64irv2l9VQgac56VowPyzyWvy1Uv3y1PLnrFyawBXV2dkkyo5yIWy37kMfOxFi1e7ETKYNasWfLCCy/IVlttpdPZz9nIrN29ofzpE/+Um3d/VD65+udkSpsSL1DSwzIxle1e3gNYFrggFDRboKv8fMUxx8fCnqPoubCisPAHRtmfsZJrKff7Kuccrm3xWQJ+NJyjO3/9blVv+yTZebUt5bJdvyZPfPYC+eJGe5g1tSXgj93YFlhbvE2u+PidMrdrLYnHhyWZVDdIyXs63Wu2cBgbW2pipZFQvxiZTCUFQP0ixJVdo/aNqV8cYJd+eM8Riw2oMGpS/uD4OGY6nZZEHL9sygZQcZtvscfG/UC+ewmwPeLuZWksM8vwwP3Xn88sbV55BHOd7msJklhsuYnVDuc7XuZ8llSnEpMx2fuP35XFQyucDULAa4Hpp8+oWBAWWMMK2NT2GXLNzn+RzphSLXVH4vFReVP+Ja+996o8lXpIBjo6nA0DIfxCS0iYzFDitW3berLajMmy7dQ1tYCh3KifNTnhwV/KYwtedDYMmK6uLiVgSjjzBAx/Y60rYB2JTrl9j6eVwRyTobZheW/lW3LtOz+X9+VlswUhpBjtkpBPzNlOjl5rN2XFK8tsbFROf/BSuW/Bs2aL4JikBExbfEq9whCwhqwDu2HXR9XHd9ylG+dfIP/9yn/Iu4Ph/IIQ0mwMZUbljhcekdNe/IXJEbngo8fKjK78qpdGoOEE7GrlNnYkuqRfWV7ffv4I+euiP0uyMynxrobUYkJqDurC4jPi8k5fnxz66P+TvkxGRjpi8sdP/8BsETyOuRE8NS31vZO7Tawydpm7p6zROUd77t947fPqxte+IpSQZmJUidexT18kmcyYdI11yO/3PcOsCYiwlMtQUwGLu96SVcJ3t7xQYvFB+d0/fy0DAwMy1DFUxtszQoiXTDIjg6lB+cwT/0/GkgOyfteasl7vbLM2RAIStpqW/uUr+0ysfP53u99JIpGSVwZekId6b9JNAgghwYDydMFr90sskZGbP3mmyQ0RXZtfPTU3XypxIxOxpGw2dWstYP/78lkyOjpKASMkIFCWEO6e/6wskpUwy2TftbY1a6ujaCltRAsMxOPlX/kvtr9Z4mP98sP5p2m3kRASPKiOOfGxqyQdG5IffvRwk1stheU9IONLU3MBW76iPDcSzSXWm7yJ+puRVxa9JGNl9kkkhJTOUHpEhjOjyutJyGbT1zS5IdCoLiQox408asNTpattWL61+CRW2BMSMihjhzx+sSQ6UnLt7qeb3BBoVBcSJMoQokPXPU4v5y95Xy8JIeHzzugKQW2PbTBeMQEJVTHqImDLVqwysYlJJIbkvnf+TOuLkBqBsvaDp34vkkzJt7b9nMkNiIBrgOqmCqW4kVfudLde3rj413pZDXftvH82/Hmn/UwuIcSP+WaEioM32FEvo0rdBEwPsTEBq3WtJSvVdv3t/SanfP5r3se0aLlBg1rkfWVDp0MoISQfWGGPrnhDMmb4pUrx8yCD9CrrJmBLl680MX/wFiQeG5N/rPyLySmPhBGp7aYWb1W8/2rrmhghxMt/P3e7VpsvbLiDyamQEOvBAhGwqb09Mn1qr8yYPlVmzzCjoZbAeG7kwet+WdqTo3LlW+eYnNK5bNvd5c4J3MS3Bvpk7wdvMylCiB+JdpHjN/ukSVVCoXpFrh0YzMxUOq1byA+NjGhhcocpSuCmKYHD0s14buRB6x4jo2p9OS3up7S1a6tr7e7JJsefTz10u3z5yftMihDiB8reQDwm0zt6lAwFZ0YFaZDVxIXEkMUYltcOZ2wZz43sTvbKaLx0Abt9h33lxo+N/0vxyJL3tdWVqtKvJ6QVQNn73l9vMHG9iBx1qwOzFHMjRxMpOe/liRvS7ThjNW11dYxjzUGu/k0J1w9e+LuTQQgpiRfT70lcuZEfnb2RySkTl/CFYTbUXMC8gtWGmTg8rDHJqVx/qf85vSwGhOv7m29nUv5c8ea/tHjR5iKkfHTXPSVCX9hgJ5MTLepugS1ZVjgjyh5z95f29rZxnWWI13ikMhntLl7/Tu3mwCOk2UBziqGhIdl99S1NTumEPSs3qLuAAa9Vtv/aXzSx4iwYGjQxf5Lqxl/24frMfUdIM7FqVek9Z/LwNUCC9YXqImBewVq5Kr+h6pS2qbJ4YPG4n/XwJ+6Wz/7tTpPyZ+1JPdpS600qa44QUhG/fOsxE4sekbDAClDCtbIE1e9LjWo38b6F75ocf276+D5y+477mhQhpBz6+hwDI8imFEERGQFzW2XxWFoeHLhu3DowN2e/9I8JG6V2xBPaGtuit/SGtoQQkX/F35exJGaCL18uwpa8ugnYRG7k/NEPTKx0IGKXvPG8Sfnzvx/aecJW+oSQfNAmrCNe2GJgfMK32CLpQo6pz/3ByNsmVR6/f/e1Ca0x20/y0HU2MTmEkGLgTSTCR2ZtaHJKYzz5CkraIiVg1ipD3X3/cOUjUACI2Ff/OX5H8KPWpoARUgroRbPdnA1Mqny87+OCehcZKQFzu5GZWMbEKufFlSu0kKV9ug4tGxma0FIjhOTYeMpqJlYhqhjaktgUFpi3HsySySSkK91lUtWzz0O362DZ7+E75AuP3WVShJCJQF/mdbpnmVSJjKNSTWmBgd4eI2pBfUIDrDBYXAjDmbTJJYSUSk97cC3rm7IODKzs65e4Epu0Tx9JQkj9mNQWnFcUFHUXsGJuJGl+9t9/f9lll11MikSf4DyXpnUhm4HTTz9dHnroIfnzn/8s667LYav9wP0544wz5L//+791+oorrpDe3l4djyJRv76aUKZatFwzimYABfPAAw+UX/3qV/Lggw/Ktddeq/NIDtwXsNNOO+kANt54Y/nUpz6l4/XmoosuKvjOonR9daNss6m4TDWVBVboRgZcg18j7EOPQnn11VfLf/3Xf+UVUOKAVt0LFy40KQfcp+uvv96k6gsabXqJ0vXVjYrMJv+dGtsCm1Cfgvp4tefddws7lj/99NOy33753ZcgdjZ4sXlY3nzzzXoJS87ND37wg4J9//SnP+k8hKTnJYjd1q4vxhFHHJHdxq/AbrDBBtn1fsdBHsT63HPP9d3GpmfPnq3ja6yxhk4jvueee+q45Y477sg7hl2CtddeOy8NvvrVr+bl/eUvf5HLL79crrrqqoJtkbZh3rx5JtfJ32KLLbJxC+Le6zvllFOyx/jlL39pcnPY/e02Nt2wRNCuqIuAjTWohTURv/3tb2XNNdeUrbfe2uQ4fOUrX9EF2oIH+bHHHtO/6r/73e98H2zkYd1dd92lC4q3Lg2FyV1osH0qldLHPOecc+SBBx4wa3JgG4gCCrQf9957rxx33HHaBcZx8Fnc17bPPvvofX/4wx/q9c8++6zvtaO+6I033tDbYDA89zbIA7DAEH/vvfd0GiRcw4JjnylTpsgBBxwghxxyiO95JgLH22STTbRIXnDBBSbXOTbEGef/7ne/q11GO/cC8p5/3ulPa6/V4rbMcIzPf/7zsvvuu+vtPvShD/leI/KOOeYY+eQnnfkaKvkcUUDPZ1Fusa2BHRIJFxLku5GNKXAXXnihrrj/xS9+oR/Ue+65x6zJAQEBqOgHtmB5LSwUCqy7+OKL5cknnzS5+Vx33XV6iUII8FYP3HbbbbJgwYKCwrLzzjvLT37yE7n00ktNTj4dHR36vIsWLdJpW4B7epzZpL797W9rcbz7bmfG9BNOOEEvvee56aab9D0AXqulHHD+JUuWaKvWXksl4BrwYwC22WYbfa/t9d1///16edlll+llOeCaMBOXjYN/+7d/00sL8l966SXp6+uTL35x4oE6o0w8go5R3QTMO0NRs/DjH/9YP7SnnXaadHZ26sLtLuCwKm688Ub9y20DrLFS3lbaQvflL39ZLy0oNM8991zeMSFiXsa75243yg0+CwqfxXtcWGxeXn/9dROrjM997nMmVj1WjC1PPfWU/lGAm+h+C1rOG8ZvfvObJlaI/THx48033zSxxiSKFTuRscDcxKMo9WXy+OOP68Jvf5l33HFHvQRwPc4666xs2H777c2a4qAOzbqmRx55ZEEh2nLLLfOO6RW5iZg1q8xuIob58+ebWHCgfixM8INyySWX6LpJWIvlMnfuXBPLZ8WKwvkdmonqW4EFb7TURcAmdZkuCU1mhHldKTduS+WPf/xjVtzcYTyWLVtmYg62KYJl8eLFZR/TzSOPPGJi5eF9OREEEP+JyGQq6+wP6xfg3qB+8R//+IdOl4Nf/SKAdf3WW2+ZFKmFGVJXC6xYZX4m07jKVkzEbB0XXLBPf/rTOm4p1X3BL7zf8b/3ve/JzJkzTSqHrbsqBVS2gy984Qt6afGez5uGpVesQFeKrfNzW2IbbZQ/L6Hf296DDz7YxIozefL4s7aD4eFhE/Pnlltu0Us/t/uwww4zMVILIulCNirW4kEhdwdgK75RCQ7c69H8oRT23dcZ198rMvfdd5+MjIzkHROhXCsF3XpOPvnkvGOgfs7i9/nAd77zHb0MEliYtgkJwpVXXmnW5OO+Fm99lx/ut4E2gNVWyw0V86Mf/Ugv7To/TjrppGyDVxv8XtoQQ0g2SUz9iuhDP/PMM7L55puX9BB4mT1rhomVRldnh14ODDq/+vYVth0P7J69XpLj/vUZSScGdLoRwRs/VH6j0rgYeDv26quvFlTuojB98IH/kNqofxmv3gkV+HgD+cILL5gch/GO6WXTTTeVOXPm6HZUfkyfPl223XZb3wLrdx5vHiwruLxugS32udC2CxYenk+IhNctRhOJDTfc0PdacV5MCeZ+CWHB9eP8qAcrBr5D66oXuz7US+JlzaOPPmpycpRyLxqFm7c/UVk7MdnmhjNMzsT0dHc7ZRvFW6uM43MhqRszL1qMzLJAXS2e7a222kqnKWAkknz961+X//mf/zEp0W3T0PSknHo9EhxRFbC6upDZynwPjVwHRoIBDVhhcdkW/RAv23aO1IdySmUtZuUGkagD87ZPijVBMwpSHbC0dt11V+1q/uY3v9Fpd30cqT1li4WnGIdhltRdwPwmyzQeJWlxMIwxeg6gspzUn7LanteoDNddwLq6nPqwUOSZEBIYwTlGwalbJFzIbEUfISSyVGxjFOwYnLUSDQGjehFCKiASAlYA3UlCGpzxjJImcyG9jMWcIUoIIdGhnHnCxpeoJnMhCSHRp/q58oOHAkYIKYng7KZmcyFZh09I5AlOLOhCEkJqTFkuZIFREs6buUgIGA0wQqJPLDARajYXkhASecbGgqrGbzYXkp0fCWkqalWiaYERQmpD1vBqMheS9hchzcZ4pTo4F7KuI7JaRkZHJZ3OZEdkvXvv5+T4Fz4fyoisO03/lByw2lHS0176PIAAY5bZkWOL4R7XDBOeYkqNNifpASPRDjrRBqC93fleggBD5Lhn4LZpLC2IJ5NOu2973zHreCm0tQ2q7aPY5NKftrbC4a7LpWtoSEZ7U3LP/BfkglfDGZcfI7ImxzLyoRuLz4nppnvSJDM9oi0zY85wPCqpc9V32vBDSltGRlP6oQ1TwH62+S3yrceOkjf6/mVyCGk+prf3yF0HfEf2e+h8kxMMwQqY+qeWDT+ktMV+xLA4f4vb5dB7P0bxIk3P0pE++ciNZ8rVWxxhcuqEp1DnfBOQn6qGiFbiB+cCfG+d/5FD7vmoSRHSGux1z0/llo+dZFLBEMWR3iPSjMIsQ2BW72ZKDhunToSQZkYX9QCbTUXEhQxPwWKxiBqZhITMRDOMl00AwqOdR9fLrmqJaOkO0SQjhFRGGbpTrAQHXbIjKmDBKTQhJCgCKpdN50IWfB5aYIREj9IEbLxJbfURms+F9AoWLTBCqiWIRrKV42+EBG2aRMqF7J3cbWIUMEKaB095bjYXkh4jIS1EgPZJNOrAzDIMel197Mrl/PPH745x3nnnyZNPPimXXnqpyclx+umn6/2LhTPPPNNsWZxNN91U7rnnHnn88cflM5/5jMktjXPOOUeeffZZueKKK0xOeZx66qkmRkiZTFSgY01XBxYd1l13XXnttdd0+PSnP21y8/nSl76k1++3334yNDQke+yxh04ff/zxZguRbbfdVu9fLKDf6XjgeHfccYest9560t3dLeeee67OKwVs97nPfU4WLlwou+66q06jD1kpYFuEk08+2eQQUgHjilhwY7tGtBK/PvzoRz+Se++9V8d/85vf6KUf3/3ud+WRRx6RDTbYQHbccUe9BGeccYZegsMOO0zne8O8efP0+iOOmLiv2v7776/32WKLLfQS7LvvvnpZDCty2P4Tn/hEdr9HH31UL4ux8cYbZ/c95ZRT9JKQUFDqFVSJb3oXshx++MMf6gKPAOvFjw9/+MN6efjhh+ulxeZPBNy6ibjgggv08vnnn9dLNz//+c9NrDjf/Gb+iAFWxMbj5Zdfzn72Bx980OQSEgJN50JGRMHcY1IVA3VefoKw2WabmdjETCQon/rUp0wsn4GB0oYXuuGGG0wsH7iihITPRAU6uALfAnVgwQ3GNx7XXnutiRXHumiVsmDBAhOrjPXXX9/ECAmPCeWp2d5ChsuIWYaHfdNXiqu22267mVjtsaOcElJz3KLFt5DR4Ytf/KJ+04cwHn/605/08p133tHLejAyEr6Yk+bEDgM+Z/asCUMtiUglflSq8ctjrbXW0hX/aPP17rvvmlx/NtlkE902qxqmTJliYpVRyXDhhFRLgb011mzNKBpTv+SBBx7QdV9/+MMfTI4/EDlwySWX6OVEPPXUUyaWz/Tp001sfHbYYQcTy6fYm1VCJsK+4FqwcNGEoWh5tvnKhQyqyEfOhVxnzbkmFm1QIQ+h+f73v29yigM3s5go+XHkkUeaWCG//e1vTaw411xzjYk5FHsrSUj4uGyt4Kq+skROwN56d76JRRf7NhHWF7r4eIMbtLoHBx10kF76geO5G4/29ztvTpG/995761b79pxoRGtBns232PPfd9992mJDC360UfM2zMV+Bx54oEkRMj7uqfAqxppdAQoZK/GL4J7jsRgQB7/gBv0eS2HZsmUm5oA3mvPnz5eLLrpIbr/99myem76+wuFS0FD2gAMOkHXWWUeeeOIJLWhwYb/3ve+ZLXIsX77cxAgJjgndQz0aRTAqFol5ITHJ5cAgJnsVPTfk3Xv/U45/4ZBA5oW8eourZa979jIpQlqHRw74mnzu8etNqjowL2S7pGXeDd8yOcXpntQlsXg83+DCH5Wh88yfRc0yL6Q/nEmIkKgQi5U2M7qDla4iKDEL6j1kJAXMaVYx6iQIIXUnHq/WG3IJlvK4gnoPGVEBI4RUSyKx0sSiBsSsqS0wQkgzE1Tj9WgImOeNH2u/CGlgStCmsWaywIL5KISQRiEoLyuSLiQhpHoCaXwaEkEZLU0vYEGZqoSQYJg6uVum9AQzuGbTC9iRzx8pF295sUkR0hrM7ZksN7z3qknVjs7Ojgndw9FUWlJVzBbmpiVcyOsGfyv/t0cwLZIJiTpf2GAz+cXO+8k1b/zL5NSOYm8Xw/KDItGVCAwODesluhLds/czctwLn5F0IhiVtpy1wVmyTmevtLe3lzy+PIjH45LJZPTSDzvUCOoc0IfSBoBuUn5xSzyelmTS6UZVDjgOrsnWc4yOjmbj9jqR5wWjsqZS5bSqzqe9vbohuid7zj08yfnewyCRGCyrBbn7nvrdo2rv3Xi0teX6tdrnzTLR8wfwbCH0pUbk0Ef/z+QGx607fFES6U6Zd0NuMAE/ujo71f1T14nrMXn6icdzb/K6J3UiR958+z29LAdvV6KWEjBCSGU4AtalBOw7Jscfr4A54mX+hCBgxSWdEELyGJO5s2eMG6b0dktPd5f0KJGCUGHZ042QywuSSApYjE1ZCYkg2pSKFJEUMDZ9IISUQiQFLO7/IoMQUk8CnA4tKFgHRghpWKIpYGPUVUIix1j0XKOIKgUr8QkhExNNAWMdGCHRg3VghJCGJUYXkhDSqESwdVNdBMx2GyKENBAUMEJIwxJBtaCAEUJKwzOSShSggBFCGhYKGCGkNPgWkhBCgoMCRggpjTGRhYuXVRTCggJGCCkZDGudFzDKqjeYbWsBBYwQUiJjMnPmzPwwa5Ye5jkvzJ4ts00IGwoYIaRhqcukHsA7sYd7Uo/7/u0pOfb5z4UyqccHH3xgYvVjtdVWMzHSrGx19AMmVlueuWI3EwsWPanHWIfsdf8v9YxesbjbbYy74pgNKmn2GpOFCx09mT1zml66adhZiYBXwIaUgOFCwhKwKAiXFwpZ8+EWrrDEpBhhntstYAuVRnR0tOt2rZiKzgYIViYzpkUGIM/qSVgC1hIupFu8IBrVBi/jrbPY9XPmzDE50RRVUjlWQCAetRYv4D5v2BbglClTZOrUKTJt2jSZPn26zJgxXS/z0KIWLk0vYGGLhFe0kO7p6TEpB/c2eHPjTlPEmgO3eNWbrIgd9ZBehgXcw4ULF+rQ3184UXT48tWClfgQjGrDREyePNnESCsRBfGypEf6RMqYlbxaUP/lxXErw4VvIavET9BKEblmAXUcldSbknB5/tpPm1htsPqVJ2QUsOCB+1Zt8OK2zooJ2kTbNAL4RfV+jlQqpYM3nzQnbklC/Vdvb69M7umRtra2Ap+xFvO70gIjJQFRmj9/vklNDIWsuRkdTUk8HtPC1dHRoSyvuKQz+ZPx1MAAYx1YJaGVqPYzt+I9a3ba2pKyatUqWb58hSxbtkyWLF0qS5YskaVqmQ8tMFJHghQeilhzgCquadOcJhMzZsyQmTNnyKxZM7Ndh9C9yMJK/BDwq9MqN7QCYQiOtca8gTQOixYtVn/Rwn6hTqMpRUa5jitWrCiwwOhCBkDUBae7u9vEWhcrZLX4xSbVoVvZ+3xNvb2TZdrUqSrmXkkLLHDcv/yVhiDBW5yoEfRnLBW8JKjXuUkpOJX0ixbDCnNAC3w0zl61qk9W9fXlNWilBRYQUXT9pqpfq1ZxR8uFIhZVxrSbOHXKlOwPr9NxOybpVEqGhoZ0sLAOLGCskHV2dpqc2mOvoaury+REC4oHKU5ct/lLJBK6DGXSaV3/NYZgxArWWI5CAQta1FrOhQRogGeFpNaBlAaFNIpkJJlMyPIVK7QQLV6yRBYrdxIuZUqJGURt2jTUgzm0mAtZ2JeKNB6pHVISfz4u8b/HZWhazp2oBIiYDWhvROpNXDefgAGA7mOzZ8/KC6jId4By2SF2wqUlLTASAq85IXlNUjKdGclMy0jn35WrbvKrBXUrVsxIvXAq8dEWDIJlBytcvHiJjiPk/9CEL2ARGtBwBJptBjT8hxz7/EGBj8ga9hhJ5RClkQvclC0QZYjTyH0j0v7ldpOqnii55Hi2ovadBnlNzoCGCdnmxv+SmbOcxqqwsNB5G4MYonIf9WFtyaRMm+4MXtjX169HbwV2QEO7D2jiAQ3z+1QFQZTEC+B6unrWNKn6U5F1U6Zl1b5Hu4wdGNyvMq2x2pNRArR06TJZvny5rFy5UoVVMtDfr8fA6540Sdo7XD9QPi5k0BVFEbXA/q4ssIMDs8Dc4hXEL5JXDL3HnGj97HmHydztvqzjUfjVrlgIKnUNNzDLgIiCJYbvPArfpZsgr8laYLvedYGk0xkV0tq6QmduxFE3hinWICbGwNJtwwYHB3U8O6Q0RK3ZLTB7A4LAKyaztjzYxILB7wGZ6KFZ+OxvTKzw+moJTP5aiFdmpseiDqBOzM2CBQtMjIRNe3u7Hg+/p8fpQYK3jugPCbewr69PW2YW30r8IAu3ouUq8Vf76IlaNKoJzUItCn5mlhKvoP0GDxBiUhvSqbQehcILRqMYUNZWnj75CVjA8C1klfgJmjdv3lH3mJhDFESwmvqjkbYRExsfLV6KeHf4jxnrw2pDIplQ7mJuhiH7JhKgGQV6mFjCly/12xjFOrD7P/l3Oea5YOrAvGIRRJ1A0AJUj7qTagp8ZtOMxO/IidJ6S9eT1zZ5TZJjScksdkQrK14Ztd0SHc0n4HowUM+6MDwT9fgexyPIa7J1YB+64ccmpxB0L+p0lWtYaiMjzo8dp1ULiChYP/WmWmsl/mL+Y/PG9Df0MoVJJNbOiVfbZm3+4kWaCl2BH4/L6OioDJsJqh3oQoYCRKyaQAqJL3IepcygI15DWw9J+q/Bz6w+HuinR8IFgxhiTkhguw2hexEsr2F05h7OCZitAvOzvoKiJQWMhIMVsWWHLZNJd0/S8VqCimQSLolEXNrNOPhoQmEbpaIdWLINI1PkYFeiEECdQLWBKGvnr/7WDkRsxnkT1ImGUP8FUKhIuIxllCgpzbLD6WA4aYuriZeBAlY1XsGJmgvYqIKYPCr/1zYKuN+AkXDACBQYVhqjUFh9sv0gUQfmbjNTAwOs+d9CWqJYd1Uv8Qq0yUE5jVLxdW7sRMOAbyHzCfKa7FvIvR64xORMzJIlS3Ur/WJ1YHwLWQZRe7ga1fIqoFR3EIMUhChepDVpGQuM5MAMMnaUgCCZ+sRUWT4915UEdN/SLf3/2W9S4YFf5mSyfm5tq1hge953scTieRVdRaEFRkLBvgYPmuXbKfGCReYKtRAvUE/xaiUw+qqt8yoWYAShngziFTYUsBalmYa3bqbP0gyg8r4WTShAS7qQ9ew3F6XC9v7772fb8TQqUbmfLVOJf98vTU71NJcLWYNyBOGqp3gBew31vg6w+uqrN7SA0fIiLeFCegUDD36lIci2RlEQsblz5+rP1Wg04jW3LPDxbAiYyAhYreyAah9873yOMGmtuNngxbvevQ1mo44CuCZ0B4k63vtH6oxbnIqFEGl6C8xr5SBdzQB43uP5vf0qp4DVqrKzFCZPnpwVCIQouJfu60EgdaaG4lQKkanEHx4Z1cISdCV+2G6aX6HynnOibVgwG5+WqcS/t8pKfNdvItuBVYj9Na80uIEQucXITzC9eX7bEELKJzIW2IiywNI1sMC8AlQJQQtQENdE6ks51g62rZQXbzhURvpKe/6CtsDalM/4iXtK7wvpi7XAlOq8+Q6bUZQNxKfaQEi92PTg60yMgOhYYKMp3fWg0erAgoAWWOPTCnVgtMDGoZbvu2xdVqWBkKhTjZvaSESyEj/IlgXepgAUoNpw9NFH54VWIGqiMTq41MSal6avA0NLczfe+qxKQpBQUJsD66pFQcTsNfzrus/qZTMTIRfSUbBK6tMmIqoiQfFqLtwiVg8hc583avVxYRGZSvxUKi2jqZR0dnbK9dv+nxz7fDijUQRtQVVCKwiX12284oorTKw1qIeAgbCEK6qV+C0nYKQ2tLqANRt8CzkBtq7d6RtYeV9FQkjrEKG3kI6CRalzs/stmteiICRo+KyVT+SaUURJwAgh0SaizSgoYoSQiYlQMwoHZ3ZfQgiZmMi5kIQQUiqRq8QnhDQv3ZOnSvekzsAqiSLTDmwsMyZDIyM6fuuOd8kxzx1e03ZgV155pYmVx1FHHWVirQvvXXlUer9Ave5Zte3AOjvbJZFMKJMJNhOMlbg8//y/9LpyaPnxwAghtUeLF8B8FBllmGSCqetmHRghpGQyY2PSPziovaXRdErGxurb6Dw6LqS6MUPDtXEh/RoK7rzzziZWHg8++KCJtS68d+VR6f0C492zMLtr3bbj4ZJUYrX73RebnNJpb09KR0e7STmMpTPywsuvm1TpRNeFJIREFr8G5hhFeXBoJBuQ9sMrXiCVDsY4iYyA2eF0CCHRZWBoOBsgQmOuf0i71w+aUEBmTDIqBAEtMELIhMT120MFLLFxA7ZxApKTeybp3dwEZX2ByNSBAavWbEbRWPDelUcjNqOwdWC7lVkH1ju5UMCGlbsJXn3jbb0sB9aBEULKxju3REUok8yKV1BQwAghNWFkxL+Svxoi40JC4QcGh3S8Hi4kIaQ4t+90hCQy6bJcyN6eLhRsHR/LZAoEjC4kIaQmVDROn8vtxJDxYUABI4SEixK/oJpNeKGAEUICp2dSpxIuJx6W9QUiJWB+TSsIIfWnXBcSTaL6Bwalv39Qt9DPZDL6GPY48XgwDdcjI2AJ21COEBI5ksmkXvYpQZoojIzkjzQB0UIn8LQSMQQ0ZC3W7ahcIqMazgfjdGqERBFYUKCnu2vC0N7eprcdl4CqxCJl9qSUKk/uLmy5SwipLxW9hfQDhwnoUCAyAob7gw6hhJAmJGDhskRCwJIJM1ojISSSZDtzl0tIwmWJhIChgi8wE5UQEjhl94UMWbgskRAwiFcqlZKujo5afGZCSJnYSvyoEY06MKVa6XRGkslEZG8UIa1MVD2kugnYyr7BbHCsTecGQcgIIdEikOF0QqDuFti0KT3qb07dtYBFwy4khLiIx6I3OkzdpQIuo9ttxDRNHB+fkGhR8VvIkInEVY2m0jKpq1O/jYwn4jKGiS8JIZEh38gY092F/LoR2VAr6i5gqBscyzjNKHQfqmjWFRJClGcEceofGAqsL2O11FXApuv6L2jWmO69PpoyN4UeJCGRxK/vo1+oFXUTsLZkXJmlzvtHN23JpMRiNMMIiRJsRuEDLC/3YGeTOjtNjCYYIVHCqcSPnojVtw5M3Y8gJ7kkhISEtsDGnDowFaLS4LzOFhjuSzRNU0JIDncpRXxgcDjvraM31Ir6WmB5t4UQElkiWlTrKmBhzVRCCAkW29UvatRVwNKu+q9cBb66WXQrCYkUUe0LWbeZuQG6DFlltwKWGcvIDR+9TY5+5siazMw9p20N+dF6F6qryEgilpL05LT0D/RrEXWuTP3Fd6cW2TT+6vVjMmWKs96Krt7LiRbk9/X3Sdq8dc0d3Sw9oo189zo8QDqt/zv5M2YknWsz4BB6LxWx25hL17jzLTrHnDu3xmyn/5t12MY8xLntV2bXW3LrcvmI2Xxgju6g8m0qu435TEjmrXPlY40TX6WvC+tz2+pFLq3/KswKu6X7+cP+7amUDCcT0jYy6vQIyW7vrAf6Rzcek4xZ4pJGkqOSVM9tPJOR4YT6TtS2belcQ0/0MHF/f3jGQSwW13GswzaIJ+IJ51zqwFggz55bJqnzDQ5JfMyZYOPvy96XZ1Yu1vGwuXWHL0pHbFS2veUCkzM+U3omHhr+zXfeM7HS8c7MXVcBc2MFbGR0VG7e4Y6aCNivNr5D0uqJaosNyxnPHS+LEwsj2+eLEEtsmcjhm6wrsUldEhuLy90L35L3BvvM2nAoX8DQmNX84hQhCAGLXGmtxXA6R8z9qhavgbaUHP/ip+TYlz4nS9sWU7xIQzA2TeTqhW/Kla8/L2+NrpK9Zq8jh621mVkbDuW6kCv6BlUY0CGlLNOh4WFJKavUsXhtqJ7IlVht3luTOQTOXOtnssuUveRHH3xFvvrsfhQt0rDg2b333TflijeeFUwrceTam5s10QJ9J4dH09I/OKLH/3PELZimFpEove4K/DD53MyjZYOujeXUVw+Vd1e9QfEiDQ+eYYSr3nhB0vExOXydTc2acHD3d2xL1n8ynpYpwfFYXPabfYCcNXSi9KXDrS8gpNbAxbtGiZiKyDbTZpnc4HG3wu/oaM8TtLwwqbMmAhcpAUubtzMT1P1VxCUb3iEfZAbk7bffNjmENBcQsf9b8p7M652hfrCDLUS2DgyVO2iFr4e+Gg+1/bgCp0IQREvAbMfugKvANp20jQy2peQbL3zB5BDSnMxfsVy/WT9krY1MTjhgPDAMgVVvoiVg5g1kPODhdL625k/ltcQ/I1Pndfvtt8tDDz00biDhgnt89tlnm1TzgGf8mjf+JYmALTBLt3INLSiv6Pc4oTUWIpESMHejwiBJqMP9/LnvmlT9+frXvy6nnXZaNoCnn366IC9IWlkU8dl/+tOfmpTD0qVL5ZFHHjGp5iOtnvnVOyduTFoqVg7hSnrdP1hjQ3WyxuouYH5vIMttczIeH5u8p5JF5ZqG37ysZF588UV5/PHHswEsW7asII+Ex/777y+33XabSTUXsMKWpNOy46w1TE71pD3D50DEujrbTQrDYjnW2GiNh5qOlAVmCVLAvjD7OEkkhmSsgUd5PfDAA7OuZTFLyr3ebcG593HHi/Gzn/0su12xbd3rL7igsGU28pPJpFxxxRXZ7Q4++GCz1gF5hx12mHzjG9/IbvPjH//YrM3Hrkfw45BDDvHdZs8998ymd9xxx7x1iJ955pkm5bDJJptkj4GAtJt11103ewz3dlHkgflvSmeAVSb4Pr0kEgmZ1NVhUg7Dyp0cHh4xqfCJjIC5FT5IF3JyYppct/A6k2o8fvGLX8jpp58uRx99tOy00046z1tokH711Vf1+jPOOEM++9nPyiWXXKLXIW+33XbLxu0x/MBxPvrRj8rnP//5cc8FsB6itM022xRsAx544AF56623ZJdddpGXX35ZvvrVr5o1OU444QT58Ic/rK/vt7/9rV6iO5tl0qRJ+tjXXXedPt+DDz5YcK7f/e538pWvfEW++c1v6m2ef/757Db33HNP9nM8/PDD2bgFBdACi+zyyy+X66+/Xm939dVX6zTuuxcc/6STTtL32aajxjD6Ygb4m11sAENYe7DG2ttyAodZxgYHh0wqXKIjYGGNzKrE8I1lL5lE47H11lvrAgURALYQ7rzzznq55ZZb6uWXvvQlvUS9zh133CFbbLGFToOUnSxlHFZffXW9xPE/+OCDbBycfPLJegkBATb//fffz8YhfG4gBD/84Q/1g29F4MQTT9RLy+joqBZBXN+FF16o8yDYlrvuukueffZZ+eUvf6nTECngFow11lhDH8Ne2/HHH6+X5YoKhP/mm2/Onv9Xv/qVXHnllb4Chs/8z3/+UxYuXJj9/FFkLKSKfD/a29uko6PNpGCQOKO3hl3BHyEBC6+Sqrs956s3Elak/LBi8Nxzz+nlrbfeqpfgJz/5SdkF65xzzjGxfHAc6ybCtb/33nt13AtcTzdWUNxAbNz4iUy757vyunkQZwusNwAhdYNrrkRYvJ8BFljDoq2v2labYEIeWGPJRE5WdAV/iC5lXQUsbwww180Osg4MtffTOtY08cbC9rhHQXcHsNpqq+klQGGdMWNGdv39999v1pQO6ndK4W9/+5uJ1QYIlvuz77vvvmaNyIYbbmhi1bH22mubmD9ut7ZhCNj4KmcM/M7ODkm6WuFj4h5dwV+CJ1AukbHAwiIdi8tHpn3EpBqLd999Vy+tReEOtl7L4l7X1tamC3s5oL6qFKyo1gr353IH8Nprr+lltUzUOwPDtzQaSfXcB65iZdBpWuG7r2B4eDRwl7LpBezupb+TTdq3ldhY/b7MSrFu4ZQpU/TSD1hbXrE666yzTKx08DbQDxz7+9//vkk5ld1+4EVDGFxzzTUmVsjf//53vXRbo8Baa+WClwpuvvzlL5tY43HAGmiJX1sX0o9uiJir6MGlhDUWVJVRJATM28YkyLeQv19yhV42ajOKvr4+7UZ98pOf1GnbpGLevHk6vfvuu+ulrXyeOXOmfPe7/o12UUA33nhjk8rHWns49uzZs7NxgMp4YC0fmz9nzpxs/LHHHtPLIPnP//xPWW+99eT888/XaduM4c4779RpACvsxhtv1M0kwLnnnquX9lotWD916lSTKgT3D806jjvuOJ0+/PDD5cgjj5SrrrpKpxuNno42eb1/mUlVTzXVOt2TCvs+BtUNKRoC5nkDGWQdmBZDdbg1etcxOdGkWB0DhAtv6L7zne/owgtLB/VAeDtnQWHF20qs/8Mf/qDFxFuA//rXv+oCirZZxcA+aESLt3E4Fu6d9zg2jfW///3vfc9VDO8P00T1Ko8++qj+/Kisx/muvfZaufTSS2WfffYxW4gWGYgPWtpjm+23377oNf/xj3/USz/w1vSoo46SI444Qh8HbzOPPfZYfb5GA/d1dHREHlm80OREA6+IBUHdhpR2V+BDjW0l/mgqI3/e/c9y1DNHBTak9FdX+6FsMG0bOfm5T0emPyQhYQDxOnTdTaVN/Wpf+3ZwzYdu3+kIaRsbll3uuszkVA6uESNaoPdJuUR0SOn8X+YgXUjw8w++L12ppGw3nPvlJqRZaQ9YvECQZRJGhLcFf6VEQsC8tybYZhQONy66TE7c5njp6grejCUkCkBkjlh/cxQgkxMciUSwxwzKE6qJgMFddIcuFTBdFNqFDI0UNnIL2gIDdy+7WUbTbXLR+tdLUlljhDQb/772pso/G5Nr3nrR5ATJChVC6i1TBYELmJ9Y4S2jFqvhYRkYGpJBFdA6F3kTVeQGyX+8sp+MjCbl51vdaHIIaQ6+uM4mAiMpaNcx6gQiYDmx6pBUOq1EYlQGXWI1rKwsLVYhWFblctzL+2oL7KJNbpc1u7Yo6LpCSKOAH/+ewUE5cr0tVEGOyW/fcfrLthKBCBiEyhGrYS1eELEw3MCgOO7l/eS5VY/Kd9b6iZy37u+kt7dXuoa6amoNElIpeE5Rl3vY+pvL5zb9iJ4l/GrlNkbBQKg1dWtG4QeaUIA7d7tTjn726NBn5gbnbfhr6Yj3qtiYjGVGZLhrWBYsWKC7QODGoHmHu/oS6SlTnAcl239TLbJxu6NejMmKFag7cMhuo8iLqwfPvriw+dn1amHj2KS7W90Tc0HuHwn38QBSyNOXY1Zhfyeq1uhIbh+7PTCHd/LMztnj6wOudOIK5Js1Huw5XPsanLT7LLltstdlLjabr/8qsIG+hlV6afNz1+lg67GR7T6/jtljKJZ0OMO+ZPOBXhfT+41lVMieE//tNjFJxtIyxYwa4z7Hknbsk5FYHHaRcxyIDo6l/jqH0sfEWme9XWY/h1rimUAqps6DSu9ZibjEx1R8LKG3BTe994r0p8If0vmOXQ6QRLpNdrnrSpNTPe+8m98JvxS8zSgiKWBBtwMrhRnJWfK1tc6SnkS3tMfaJY6nDK339X/nYXGWuEZHROzz7qyx6/CIqn9YqexbPdGSPhamWnA+n7MjHlq7n3MEu4zpnVRal0Icy85orFIqK1c4kes5J9DrnY6zNt8tkHHsp65HRT09FLCt2cfsb3Hy9Er1X+2rPltcxTNqfxRWgOKKbWJ6Wgnk62wdd64Jeebe6STSKqb9AOSoT2OOBfR+auMYPmMsg/ppnac3xzGQodCfRW+r/jq7mDiuA1ur+wNBMYKgz6suHtva6zG7aCsGcZwnpj8bcs2x8Q8ZOLf5LpFnce4/1qvz4LhOSuc7x8S5nDPp/fR/bKGjepW9l856s85ZofbOyFB6VJ5euVBeWhlcK/tScASsQwlYcCN0NK2A1dICI4RMjLXAtr3lQiPGIm1tyhJUPyIYCwyU2zQiCAEr74yEkBbGWo8Oo6NpPRY+WtUjoJN2OSEIIilg7O5DSBTJufdRIZJKwbeBhJBSoKlDCGlYIiNgtgKfEEJKJTJvId0CVutmFDt0f0KOXOMUwet/XAVeYWNE77RpvuA0qcAKpMyrbfzD63G8ws++bge5bdCUwcbRXCHbQgDtelQaL/l12wD1M4KmE7n97FHw+l3l2R11MwB1TH0ytVZdk34rj030P3v1aDbgHAvdS9KuJhV6qa/bafKAphB6v5jax1yLg1rrbK5iuc8BdFwdV7eRQtMAtQ92QyqmdjKNKNQ9RK6zb+5YODeWKqj7q4+jVzgb6OvW14Atc58DKb2xRp1B5eN70fkm29kWOc5zo5Oudc4xEHfWx9QBnMafzr3X+6vtsUt2V7OfXeeswd9cHuLO3XTiFqdJBA7ofI7s+uwmeHbsntjevTdwvndnH7NGbZ+Jp+SZZQvlyWXll9VKcd5CJuXDf7hI11EHMaJqEMPptLSAHTnnVNlh2p7q+crIYKpP/rDsOrlrwc3ZB4q0Fr39cVnZnZGpgwnJmDZmeSgt8nvBtLwzJZ0jMWkfjen94+pR7hnMbRdPxCXjKvC22UE5oHcLzrPW9Omy25S1ZVIyrp5SR3iveutfZqvwsAK2y12/NjnVgan0Pphf/oCLFDAFmkZesvEfZaAtJT9470hZvny5WUNI4wAr+rB1NpXkWFxu/eA1WTYS3mSyQQsYaNp2YNo0D4nJiSly6Sa3SX8yJV99dj+KF2lYUE6ufv15+Uv/Itlv9fVkh+nO5MStRCQFDL8sMWWSB00ilpRz179OXo49I1974QC2NyMND57hNxYvlD8ufFs2mDxFtuidbtYEz0gm3CqdSmipEnzxRrfLqsz78v/+6T9rDyGNytKBfnn8gzflI9PmmDkhg6dvNLwZtislEgJW0ISiTWS4PZhplywXbHizxJMj8q13T5JMh+d8hDQBLw4PyGAqJYeujTkhgyXd2yvzh/pMKjrUVcAgXAXiFRJj7W1y1HP7yfBwsMJISFRA1cv177ykG19sNSWYARbcvN4XvfrimgmYFSt3KMqoyOT2ySZRPedtcIv6G2OdVxVgPkrMv7jffvuZHBJF8Iw/tHKxfGjqTJMTDLHly+XxRe+ZVHQIpUSXJVZFmNwRnID1xHvkP/91kEmRcrj11lv1RK+YEXzevHnyjW98Q6cxYzaJJm8sWSTpMVW4lUUWJM8sX2Bi0SEQAatWrLygbfJaybVMqjpWa19HHS0lI2PhtZFpVjo6OmTGjBl6ZmuEXXfdVS8xK/g111xjtiJRw3oan1ptXb2sFju4wqoUK/FLZqdJO6IPRdUcOvskLYgx9LshZXHiiSeaWD4nnHCCXkLg3GyxxRbyk5/8pGC/PffcUw477DCTyoG8z3/+8yblgIaKZ599tnzpS18yOaQS/u/9BTKlPZjJY9eWyZIYSyqrrnrjJGgiK2Dr9wTjomzetbXcuvJ6z9DJpBSuvNIZ/3z27Nl66QaWmPuFCNzKSy65RG/77//+7zo9fbrTJumee+7Jip4b5N14Y26KO+xzyy23yKabbirHHnusTpPKWJpaLnG/7lAVMDXZqYQibvqNRotIClg8npGenh74kgGQkZeWPGfipBxsL4Wbb75Zi8mHP/xhnfZy3nnn6SVE7ZhjjtFLcNttt+mlBdaZBVaZm9NOO00vse9nPvOZ7DEoYpWhpSagOrD/VD8oUSWSAnbX+/cGJF4gLt1JzsRdKRCSXXbZRcfPP/98LSh33323TltOPfXUrOBY/vrXv5qYA6y5nXfe2aREfvCDH8g777xjUiKf/exn5ZFHHjEph3322cfESNkoBQtqUII111jDxKJHJAXstvfukLbRtkDqwDC0Sn8qf4YdUh6oxIVAIXz961/XcxJ6LaPjjz9e59lgRc9y+eWFs9kceuihJuawww475B3jzjvvNGtI2QRkAOC7HxwclNdX1XYWpFKJpIC9tuo1vZzVPksvqwEjT2wyY0uTItXyt7/9rcDa+upXvyqHH354VuQQvBaY5cwzz5SNNvJvKX7WWWflHcMGUj5Bv7K67s1oVsNEUsBSGOhubEx+svU3TE7lvDT0jBzQewjfQlaAtYSKsdpqq+nlwQcfLEuXLtVxC1qFe/nmN78pn/70p7U76SdwaGNGgmFG2zQTq47ukW5pG2uXvy562+REi0gKmKWnp9vEKufahb9UbmSMbyErAJXp4KSTTtJLixW1Dz74QC+BfeMIOjs78+q7LA8++KCJiXzrW98yMYdvf/vb0t7eLhtssIHJEdl9993HFVBSnH3XXkNWBdD5+oKtd9PL4YhWw0RWwP7vgz/LyMLRqmco+mD4LW1Pt8c6TQ4plcWLF8uRRx6p66qsNWYFxe3a2bhdj2YTv/nNb3ReqfzlL3+Rm266Sa666qrscaxLScoDZWZUiddtH7xpcioDx5kz02n/hbFfo0ggI7JOmxaMueqmJ9ktv9/5Kvn5m5fJE/3/MLmVcf5GfxBpS8gpL7AfH2l+1pk2Q3aePFOuffslk1MZqAa4fcf95f/efUN++vzDJjc4mnpm7r5UvzKcOuXojb9gcirnlFfgCo1Vbc0REnXwjO+oxOufKxabnMr54hobS3IsGYp4BUWk68BGMkMyJTNH2kfbTU7lxEdTcvnmtxZ0fyGkWcAQ04estbEklOX07IolJrcycKzPrr9pUG1hQyPSAnbow1+SVCou207d1uRUzsmvfFbGMh3yo7nnSTLFhq2k+diss1vaEwm57p2XTU7ltLW1SYdSrw/6V5mcaBJpAVuV6pN4fFROXPfQQNy/E17ZT6Z1rC0nbvRNk0NIczC9q1s+Mmct+cfyRZKqsqygrJ205c4STyXkkIduNrnRJNICBl5Z+bpednZU/xYxPZaWr712iMxr/4ict8WtrBMjDQ+e4XVnzJJ956wtb/SvlBdW5rfHq5Q9e3oEXZGi+vbREnkBO/Opb0o81i2XbXxZIILTn14lx710oHSNJuR/t/yDbLbZZmYNIY0F3hIevv4WsuvkWfKH916Th5fk2uVVCsrYsZttrRuvXvji30xudIlsMwo3v9/5t9KdnC7HvXacDA0FNzDhl+acIh+bspOkY2MymhqVPyy5Tu5eeIv+5SGtAWbjHg89xV/cvyY7nUnLqkmFz0rvQFwPKuiejRuzcycTCZMqn1QqLcu7nJm5d522pnSidh3Xpk5/1dsvmK2qBwKGSWwhYEFOYutHEM0oGkLAZnXOlN/scIWMjK2Qk578jgx2Dpo1wbBz927yxTVPFNGDto1qAcObHCzx6FpBc5Z4KJ358XKPLtbYdc5073pyXlU29BhwOEgsrXLNA63HVdL9A/Q/neVaxvROKo2HFMdTrm92vfPc6tXO3s71YG12QmCsF6fltN5G5duuPUjHVRqd3G3a2R5gW7OP2d/i5OmV6r/aV322uIpnVAkaMwPdxc0niunrQb7O1nHnHMhT+6q4XpXRWznrdE8J9Wlcg+bpdWqlkgJ1HnVM9eGdPJWLfcx4V2NqnTmic07zeZz7BoHCvs490Fvh86uL158V16OARmEdvj1cCpZx/dmwVv9Rf5FWcb0t9stdD3Duv1lvPofOUfm4JL2P63tw/mMLHVWrzPF1GitNHPuouM5T0bT6bl5cuUQeX1r+1PzjAfH6/tYflx0nryl3zn9dfvKMf3/WoGgZAQN37nGLerCG5KZl98pt7+ePM0UIqR68ebx5+0/WxPoCTd2Q1cs+9x2ozPJuOWjaQbL6yOqB1IcRQmDcOY28b91hXy1e571UXc+XWtIwAgYeWviYshnT8r1tvi3JZFIS6UTW5CaElA9GaUnEEnLL9p9S8bgsG0nJzW89Y9ZGn4YSsB89+18yNLZKeuIdcumG5+gW+hQwQionlo7J2etvJ93t3RIfS8rhD99q1jQGDSVg4EsP/4fEYiPS3tErv/zwOTKrc5akR9IyNkwhI6QU8KOPkE6n5Rcf3lXmrbGmZBIZOfMfd8nK0Wi3vPfScAK2fGS5fPGhEwQjrbbH2+V/N/qeHDr1UBkLaAYWQpodiNfkyZPljn87WNaZ3Kvfuv7x3Zfl4YW5OQoahYZ5C+ll8ymbyP986GeSSAzqNjfx+JhcseJG+cf7T0vHigFZxYk8GopynqBio7PX/imsB+OPTZ9KpVSZSOgmIzaN+uJUarKs6BiSbVRZPXPeTrqyXhOPyT3vvyY/CrnJhB8t1YzCjzkds+RXHz9fuhKdWsDS6VEZnjRJOgerbyeGh6B8qp/4oLLzlkYshvuSm8sxSiQSK01sYmzh9BJUfWjuO6j/RBbwNNCQFp8t25ZPxfGjjaXNxxLXjbeJiFuwzpmpe5mke5W1ZabKswJ20StPynVvPKvjtablBczylU2OkQPW3Fc38tQtAg2xWPnD4OpHVz8nOJDTyLE0bLOOEpt3JNR22DSm/uBUpkzCbnSaZWZUlnpIzfFy9mQp12SvwSzx/CJatMLAs31JZNThMs79UmRvOz4HAg5l45pyz+G/vT2cLcxocKozsw1gnWVC5bnvFDaJmUarbuK2lb2rAW1xsI0K8LlwRH1fTdwcJh+z/TjEK3hGLXE8OxMcPx91t3Dt6rP+fckHcvbzD8mioQGzrva0VDuw8fjFS5fLQX/9kvz0+fPkH0v/Kf2pfrOmArIPYjniZSnjYUI7NltoPA+/FYVCW6ySa3KRVZngKChC+Cw2A3Gc04Zy7o+mhO3tZ9LnKr594b2sBM/x3ef2pdzPGx6Dyjt5eeUSufyVp+Twh/8gpz95V13FKyiawgIjpBTakgnpaG8zKQ9FRagYZe9APNACI6QMqulMTaIJBYy0DEPD40wzZt1B0lBQwEjLAI0aV8RIw0EBIy1FMkk3spmggJGWYngY470FAX3OKEABIy0FZGeYbmTTQAEjLUcqnZHRdJVt6kgkoICRlgMtuNikojmggJGWo6gbyWqthoMCRloS7Uam6EY2OhQw0pLorpMYzcFJVghNtnpDASMtCaQHQ8+wR2NjQwEjLQvdyMaHAkZamuGRUcm4BgAkjQUFjLQ0GNAw455PgVrWUFDASEvjiBdVq1GhgJGWB24kJawxoYCRlgdVYOjkXRmUvnpCASNEgUle8VaSNBYUMEIUmLosmWBxaDT4jRGiQGX+8GilbiSpFxQwQgyjo8aNZLVWw0ABI8TFyAitsEaCAkaIC7TK7xsYkr7+XBgw6aGhESVwKeeNpbLS4HayHVl9oYARMgG2oT7cy5HRlO4/CZEbGBzWwRG6wWzod8WHhoZlcNBZj+Wo2h9jkWXUsTAaBjqUk8qhgBHiIZGIS/ekTunsaJNJXR3S0414u7S3OTN7x2KiQxx/fHDbYxC9tFFALNFoFgI4oISt34igFTu/MKjWWxGE2KXVvhA/4kABI8RDWglEKpXSU7ChryRIJuPSrsSrTYkYxA1h0iRH3JzQ5QSVb+MQPSe0KbHDMNbxoqJXjLQSLSuCELtBZb1B/PzEzoYBJXaO2+ukYfFBBFG/NwYRxHwATdKBnQJGiAeIVlsyaVJl4hIoCKATkkrslKB1dqilS+yKBIgjlrD+2tuSWgQd8VPWoRHU8dB1cy6BgsVn3d9+iODQiKnnKxQ/GyB4EEKIHwQPri9cXk2ExI8CRoiHercJixkRjMcdqw8i6Ihfl3R1jS+A3Ur0Oozri/0S6hjuBrql2n8QPNwHiB8ED64vXF4tcOOIn63/6x9wLD+4wBA/uL+pEGaCooAR4oNuE5Yqp64pGlZJTAkWrEeIHyy3LiVkEL+swLnEzhus5dfVifq+pF7CGoXbW4rlB+xdgJEG8YMLDPGD+4u3uG6xCwIKGCFFGIEVFh1vKXSs5ZdIJLTlh+UkZfHB7S1q+RnRg/h1tDui12bqDr1ds8qs/isJChghRai3K9kQGFWC+LW1OaLXoSw/CJ/b8nNEziV8KgQBBYyQIqBstldamU9qAgWMkCKgHgdv7kh0oYARMg66CYIKJJpQwAiZAKcBaAvV5jcQFDBCJgDaVZorSZGrNRQwQiYAlfltbazMjyIUMEImQFfmj7AyP4pQwAgpAXSDQet8Ei0oYISUCFrmOwMYkqhAASOkRNC/MEIDMRAFBYy0FOinh07OzpA5GKAwqTsuA3Ra9vZZRgU++vRhTC/080skPBuQukIBIy0DRlrFiKoQpEmdHTqOkRsgYOiUjCFo0IdPd1A2oVv36WvXQ9OUBk20WkIBIy2DHmk1hDGpSP2ggJGWAc4fxqeijdQ8UMBIywDhSiYSJY9KSqIPBYy0FBjemDQPFDDSMuCNIgbcowvZPFDASMuANlyYWYcuZPNAASMtBVxIO9FsyZRtstHGqxUUMNJStLcnS55hh0QfChhpKTC6Ku2j5oECRloKuI8cIrp5oICRlgL9HxFIc0ABIy2FnS2aNAcUMNJycGDC5oECRloKvIHs6GgzqTDhq4JaQAEjLQUq8SvqTkQ9iiQUMNJSYEyw0sf2IlGHAkZaikw6o7sTkeaAAkZaCkgX3kSS5oACRloKjEiBkKEV1hRQwEhLAd2Kx+J6Ag/S+FDASMuRSqX4UrFJoICRlqN2/SEpk2FDASMtB6ZRq6g/JPUoclDASMsxqlzIsgc1JJGEAkZajngcjz0FrBmggJGWIxaLSUKLGGl0+C2SlgMV+Kk0h9RpBihgpCVBUwrS+FDASMuRTMSlo6PdpMKGdW1hQgEjLQfcR46L3xxQwEhLkkpzdqJmgAJGWg68gexULmRFvSGpepGCAkZaDkzqwUr85oACRloS1IFxSJ3GhwJGWg6MpJNIJipzIUmkoICRlgOGF8QLLfJJY0MBIy1JbV1IuqphQQEjLUntxgQjYUIBIy1JR3tSjwtGGhsKGGlJ+BayOaCAkZZEu5DpCl1I6l5koICRlqS9LSFtSbqQjQ4FjLQk6fQYZ+huAihgpCVBd6J0pS4kiQwUMNKypFIZtgVrcChgpCVJJOLS2dnOGbobHAoYaUnSHNSwKaCAkZYFdWB07BobChhpSeLxmHIjK5idm0QKChhpScYyY3pYnYprwGi6RQIKGGlJoD+oByONDQWMtCzoSsQJbhsbChhpSeA6YnKP2raioN8ZNBQw0pJASuJKwCBipHHht0daFriQGJWCNC4UMNKyZJR4sT9kY0MBIy0L6r8wIgUHNmxcAhEwDktCGhHUf2FYafaHrD1BaQYtMNKyoAlFVc0o+Ltdd2iBkZaG/SHrQ1CNiAMRMFaEkkYEQ+q0tbVxhu46MDo6amLVkRWwTCYj8+bNM6nySKVSJkZI44D+kLX3A2nvgZGRERMrD2gUtMqSFTC4gVtssYVJlQcFjDQiePvI/pD1YWSkMgsMGuWussoKWKyKNzF0IUmj4jRmpYjVmpEqXEi3VrESn7Q26tHl81t73G5gNWQFDP3CqoEPAWk08Dve1p6UJAc2rCnVipdbq7Kxn/70p3LaaaeZVPlUWilHSL3ATy7qwPjTW1sGBgZNrHygUdAqS1bAXnrpJeno6DCp8hkcrPyiCKkXqL9lHW5tWb5ipYmVDzQKWmXJCtjrr7+u28RUCl1I0mjAhXSG06miJRgf+7KpRiugUdAqS1bAli5dqpfVWGFDQ0MmRkj0QTGKJ+KSVKG2tK7qrVy5ysTKx2qT1SqQ980tWrRIvv71r1dcoU8BI40G6sA4GkXtWLmqz8TKA5oEbYJGuclTqjvuuENOPPHEipv5wzQMqosAIbUAAuY0Zq3CjSQlMTQ0XLH7CF2BNkGj3OQJ2MUXX6x9zO7ubpNTPn19lSksIfUClfi0wsJn0eIlJlY+0CRoEzTKTZ6A2TeJxx9/vF5WysDAgIkREm3QBqy9vc2MCUYrLCyWLVthYpVhNcnb2iFPwGDe/epXv5LTTz+9qsZmw8PDfDVNGoKxsYwKJkFCYXQ0JX39/SZVPtAiaBK0yeuCFtTWX3TRRdLV1SUzZ840OZWxcuXKiv1dQmoFJvXI/7GlFRYk0ID5CxaaVGVAi6BJ0CYvBQIGtVu4cKFcdtllJqdyli9fThEjkQeduTPKEstBEQsClP133/vApCoHWgRN8vMKY/PmzStQmLlz58pdd90lM2bMqLqPJJg6dWpVo10QEjYd7W3SlkyaFCjjh7eiR7u5ywN+FN5/f75JVQ5Ea8mSJbL33nvL/PmFx/NVJ2yI9hY333yzyakOWGJsI0aiCCrvuzrbPeIFyhCYipyM5vVM0Fg1CPEC0CBokZ94AV8LDPT29spDDz0kW265pSxYsMDkVgessMmTJ0uCvf9JhMDMRO1Fu9GVKDS0wmQ0lVKu3uKqXgC6mTNnjjz33HOy00476Tp1P4r6h9jh/vvvl7///e8mp3rgE+O4sMj4lpJEBd0aP6BC14qgkel7yuKaP9+/nqpSoD3QoGLiBcat4DrllFOkvb1dfvzjH5ucYLBCtmzZMt1mjA8PqSeor0lniv2gNnddVaXAAFm2bLm88+77Mn/BosDLMDQH2gMNGo+iLqRlxx131K8vN9poI205hQlcS1w0AtxNVvyTsEEdWFtbQpLJpJKq8Z63CVzJJnYhYXBAoPoHBrXBgXZdYYKXfq+88oqccMIJ8vDDD5tcfyYUMHDFFVfIZpttJuuuu67JqR1WyPCAIUDk8GY0iLejhIDx68AszS1gcKMxOQ/cQQxOijHrkQfxQqglb775pvzrX/+So48+2uQUpyQBg1g8+OCD8thjj8mhhx5qcmuHvYG0yAgJn3qWt+uuu06233572XnnnUtyS0syY3CgfffdVz7xiU/I1VdfbXJrh7XCCCHhU6/yBm2BxkBrSq1TK9kPQ/3Xxz72Mdlnn31kt912M7mEEFI90BRoCzSmnLr2siqS0BgVFWs33nij7L777iaXEEIqB1oCTYG2lNvgvSwBg2+MtwKYGeSGG26QX//612YNIYSUDzQEWgJNgbaU+8KgpEp8P3p6euSRRx7RrfUPPPBAk0sIIaVxyy236Fb2O+ywQ8UDoVYsYACjJN533336tes222yjG6eysp0QUgxYWOim+NRTT+n2nnvssYf0VzFWWFWNqXBiVLqhvxKmOjr11FMDb5FLCGkOoA3QCGgFNAPaUY14gaosMAusru22206P24OWumuvvTYtMUJIFlheb7/9tkyaNEmOPfZYeeKJJ8qu7/KjKgvMggt5/PHHZauttpKXX35ZDz6GBmmdnZ1mC0JIKwINgBZAE6AN0AhoRRDiBQIRMDdHHHGEHnxs8803l3feeUe/Hl1jjTXoWhLSIqCso8yj7EMDoAXQBGhD0ATiQhYDnTLvvvtuPaMuZhO58MIL5dxzz9WTfrAvIyHNA0QL5RyTb2D+Roxhj3K+1157hToIRKgCBqxQnXnmmXLAAQfoD4YPe84558jll18uK1as0GnWmRHSOMAFRNmeMmWKHHPMMXLGGWfoNAyVW2+9Vc4++2y9XdieV+gC5gYihRlGDjroIDn44IP1mPsAFf9oB3L99dfntcR9+umndSCE1Iett95aBwvqtA455BDdDhQV8gBj1qMx6k033SSLFy8OrH6rFGoqYH7Azdxwww1l0003lZNPPjlb8Y+bAMGjZUZI/UA5tGURwMC44IIL5MUXX5RXX3019DECJ6LuAkYIIZUh8v8B+Glin1TuAGoAAAAASUVORK5CYII=;" vertex="1" parent="1">
          <mxGeometry x="-44.20000000000002" y="30" width="88.4" height="180" as="geometry" />
        </mxCell>
      </root>
    </mxGraphModel>
  </diagram>
</mxfile>
